TITLE ""
FILE "DISC1Track30.mp3" MP3
  TRACK 01 AUDIO
    TITLE "DISC1Track30_01"
    INDEX 01 00:00:00
  TRACK 02 AUDIO
    TITLE "DISC1Track30_02"
    INDEX 01 00:01:14
  TRACK 03 AUDIO
    TITLE "DISC1Track30_03"
    INDEX 01 00:01:29
  TRACK 04 AUDIO
    TITLE "DISC1Track30_04"
    INDEX 01 00:05:06
  TRACK 05 AUDIO
    TITLE "DISC1Track30_05"
    INDEX 01 00:07:73
  TRACK 06 AUDIO
    TITLE "DISC1Track30_06"
    INDEX 01 00:10:46
  TRACK 07 AUDIO
    TITLE "DISC1Track30_07"
    INDEX 01 00:10:62
  TRACK 08 AUDIO
    TITLE "DISC1Track30_08"
    INDEX 01 00:13:01
  TRACK 09 AUDIO
    TITLE "DISC1Track30_09"
    INDEX 01 00:16:09
  TRACK 10 AUDIO
    TITLE "DISC1Track30_10"
    INDEX 01 00:18:57
  TRACK 11 AUDIO
    TITLE "DISC1Track30_11"
    INDEX 01 00:18:67
  TRACK 12 AUDIO
    TITLE "DISC1Track30_12"
    INDEX 01 00:23:54
  TRACK 13 AUDIO
    TITLE "DISC1Track30_13"
    INDEX 01 00:27:29
  TRACK 14 AUDIO
    TITLE "DISC1Track30_14"
    INDEX 01 00:30:54
  TRACK 15 AUDIO
    TITLE "DISC1Track30_15"
    INDEX 01 00:30:70
  TRACK 16 AUDIO
    TITLE "DISC1Track30_16"
    INDEX 01 00:32:48
  TRACK 17 AUDIO
    TITLE "DISC1Track30_17"
    INDEX 01 00:34:64
  TRACK 18 AUDIO
    TITLE "DISC1Track30_18"
    INDEX 01 00:36:57
  TRACK 19 AUDIO
    TITLE "DISC1Track30_19"
    INDEX 01 00:36:65
  TRACK 20 AUDIO
    TITLE "DISC1Track30_20"
    INDEX 01 00:39:16
  TRACK 21 AUDIO
    TITLE "DISC1Track30_21"
    INDEX 01 00:41:43
  TRACK 22 AUDIO
    TITLE "DISC1Track30_22"
    INDEX 01 00:43:34
  TRACK 23 AUDIO
    TITLE "DISC1Track30_23"
    INDEX 01 00:43:49
  TRACK 24 AUDIO
    TITLE "DISC1Track30_24"
    INDEX 01 00:46:24
  TRACK 25 AUDIO
    TITLE "DISC1Track30_25"
    INDEX 01 00:49:11
  TRACK 26 AUDIO
    TITLE "DISC1Track30_26"
    INDEX 01 00:51:35
  TRACK 27 AUDIO
    TITLE "DISC1Track30_27"
    INDEX 01 00:51:43
  TRACK 28 AUDIO
    TITLE "DISC1Track30_28"
    INDEX 01 00:55:05
  TRACK 29 AUDIO
    TITLE "DISC1Track30_29"
    INDEX 01 00:58:55
  TRACK 30 AUDIO
    TITLE "DISC1Track30_30"
    INDEX 01 01:01:67
  TRACK 31 AUDIO
    TITLE "DISC1Track30_31"
    INDEX 01 01:02:06
  TRACK 32 AUDIO
    TITLE "DISC1Track30_32"
    INDEX 01 01:05:65
  TRACK 33 AUDIO
    TITLE "DISC1Track30_33"
    INDEX 01 01:09:21
  TRACK 34 AUDIO
    TITLE "DISC1Track30_34"
    INDEX 01 01:12:24
  TRACK 35 AUDIO
    TITLE "DISC1Track30_35"
    INDEX 01 01:12:29
  TRACK 36 AUDIO
    TITLE "DISC1Track30_36"
    INDEX 01 01:15:28
  TRACK 37 AUDIO
    TITLE "DISC1Track30_37"
    INDEX 01 01:19:04
  TRACK 38 AUDIO
    TITLE "DISC1Track30_38"
    INDEX 01 01:22:36
  TRACK 39 AUDIO
    TITLE "DISC1Track30_39"
    INDEX 01 01:22:45
  TRACK 40 AUDIO
    TITLE "DISC1Track30_40"
    INDEX 01 01:25:52
  TRACK 41 AUDIO
    TITLE "DISC1Track30_41"
    INDEX 01 01:28:42
  TRACK 42 AUDIO
    TITLE "DISC1Track30_42"
    INDEX 01 01:31:07
  TRACK 43 AUDIO
    TITLE "DISC1Track30_43"
    INDEX 01 01:31:19
  TRACK 44 AUDIO
    TITLE "DISC1Track30_44"
    INDEX 01 01:34:39
  TRACK 45 AUDIO
    TITLE "DISC1Track30_45"
    INDEX 01 01:36:71
  TRACK 46 AUDIO
    TITLE "DISC1Track30_46"
    INDEX 01 01:38:68
